<svg t="1563868203666" class="icon" viewBox="0 0 1024 1024" version="1.1" xmlns="http://www.w3.org/2000/svg" p-id="3994" width="200" height="200"><path d="M522.6 521.2m-450 0a450 450 0 1 0 900 0 450 450 0 1 0-900 0Z" fill="#80DEEA" opacity=".6" p-id="3995"></path><path d="M524.1 747.7c-61.3 0-118.9-27.1-158.2-74.4-5-6.1-4.1-14.9 1.8-19.9 6.1-5 14.9-4.1 19.9 1.8 33.7 40.7 83.4 64.2 136.3 64.2 39.3 0 76.6-12.7 107.8-36.6 6.1-4.7 15.1-3.6 19.9 2.7 4.7 6.1 3.6 15.1-2.7 19.9-35.9 27.9-79.1 42.3-124.8 42.3z m187.4-153.2c-0.9 0-1.8 0-2.7-0.2-7.7-1.6-12.7-9-11.1-16.7 2.3-11.5 3.4-23.3 3.4-35 0-67.6-37.5-128.2-98.1-158.5-7-3.4-9.9-12-6.3-19 3.4-7 12-9.7 19-6.3 70.1 35 113.7 105.6 113.7 183.8 0 13.6-1.4 27.4-4.1 40.5-1.1 6.6-7.2 11.4-13.8 11.4z m-378.6-44.1h-0.5c-7.9-0.2-14-6.8-13.8-14.7 3.2-92 67.8-171.6 157.6-193 7.7-1.8 15.1 2.9 17.2 10.4 1.8 7.7-2.9 15.1-10.4 17.2-77.3 18.5-133.1 87-135.6 166.4-0.5 7.6-6.8 13.7-14.5 13.7z m0 0" fill="#3D5AFE" p-id="3996"></path><path d="M524.1 408c-31.2 0-56.7-25.3-56.7-56.7 0-31.4 25.5-56.5 56.7-56.5 31.2 0 56.7 25.3 56.7 56.7 0.1 31.4-25.5 56.5-56.7 56.5z" fill="#3D5AFE" p-id="3997"></path><path d="M524.1 323c-15.6 0-28.3 12.7-28.3 28.3 0 15.6 12.7 28.3 28.3 28.3 15.6 0 28.3-12.7 28.3-28.3 0-15.6-12.7-28.3-28.3-28.3zM353.3 681.3c-31.4 0-56.7-25.5-56.7-56.7 0-31.2 25.3-56.7 56.7-56.7 31.4 0 56.7 25.3 56.7 56.7s-25.6 56.7-56.7 56.7z" fill="#3D5AFE" p-id="3998"></path><path d="M353.3 596.3c-15.6 0-28.3 12.7-28.3 28.3 0 15.6 12.7 28.3 28.3 28.3 15.6 0 28.3-12.7 28.3-28.3-0.1-15.6-12.8-28.3-28.3-28.3zM691.9 681.3c-31.2 0-56.7-25.3-56.7-56.7s25.3-56.7 56.7-56.7c31.2 0 56.7 25.3 56.7 56.7s-25.3 56.7-56.7 56.7z" fill="#3D5AFE" p-id="3999"></path><path d="M691.9 596.3c-15.6 0-28.3 12.7-28.3 28.3 0 15.6 12.7 28.3 28.3 28.3 15.6 0 28.3-12.7 28.3-28.3-0.1-15.6-12.7-28.3-28.3-28.3z" fill="#3D5AFE" p-id="4000"></path></svg>
